<svg width="160" height="160" viewBox="0 0 160 160" fill="none" xmlns="http://www.w3.org/2000/svg">
  <rect width="160" height="160" rx="80" fill="#F8EBF0"/>
  <circle cx="80" cy="80" r="78" fill="url(#bg)"/>
  <path d="M36 136C41 110 58 95 80 95C102 95 119 110 124 136H36Z" fill="#7D5D49"/>
  <circle cx="80" cy="69" r="26" fill="#F2C6BA"/>
  <path d="M54 66C54 48 67 38 80 38C93 38 106 48 106 66V74H54V66Z" fill="#6A4B3E"/>
  <path d="M48 74C49 58 61 46 78 46H82C99 46 111 58 112 74C102 68 91 66 80 66C69 66 58 68 48 74Z" fill="#8F607A"/>
  <circle cx="71" cy="69" r="3" fill="#20171C"/>
  <circle cx="89" cy="69" r="3" fill="#20171C"/>
  <path d="M72 81C75 84 85 84 88 81" stroke="#B46B77" stroke-width="3" stroke-linecap="round"/>
  <defs>
    <linearGradient id="bg" x1="20" y1="20" x2="139" y2="143" gradientUnits="userSpaceOnUse">
      <stop stop-color="#F9D6E2"/>
      <stop offset="1" stop-color="#E5C2A5"/>
    </linearGradient>
  </defs>
</svg>
